<svg version="1.1" viewBox="0.0 0.0 583.4304461942257 565.2178477690288" fill="none" stroke="none" stroke-linecap="square" stroke-miterlimit="10" xmlns:xlink="http://www.w3.org/1999/xlink" xmlns="http://www.w3.org/2000/svg"><clipPath id="p.0"><path d="m0 0l583.4304 0l0 565.21783l-583.4304 0l0 -565.21783z" clip-rule="nonzero"/></clipPath><g clip-path="url(#p.0)"><path fill="#000000" fill-opacity="0.0" d="m0 0l583.4304 0l0 565.21783l-583.4304 0z" fill-rule="evenodd"/><path fill="#ffd966" d="m284.6836 217.53456l0 0c145.36737 -0.54862976 264.60553 37.87474 266.43982 85.85771c1.8342896 47.98297 -114.42868 87.38724 -259.7917 88.04956c-145.36305 0.662323 -264.87668 -37.667664 -267.05542 -85.64905c-2.178751 -47.981415 113.80098 -87.47652 259.15884 -88.25255l2.3738708 48.448044l0 0c-118.67763 0.18652344 -214.06236 17.560242 -213.09726 38.81433c0.9651108 21.254059 97.914955 38.347687 216.59384 38.188507c118.678894 -0.15917969 214.1883 -17.510925 213.37576 -38.765198c-0.8125 -21.254303 -97.63953 -38.37021 -216.31946 -38.238373z" fill-rule="evenodd"/><path fill="#ffffff" d="m150.62466 140.13255l205.6063 0l0 339.43304l-205.6063 0z" fill-rule="evenodd"/><path fill="#cbcbcb" d="m356.23096 140.13255l68.53546 -68.53544l0 339.43307l-68.53546 68.53543z" fill-rule="evenodd"/><path fill="#ffffff" d="m150.62466 140.13255l68.535446 -68.53544l205.60631 0l-68.53546 68.53544z" fill-rule="evenodd"/><path fill="#000000" fill-opacity="0.0" d="m150.62466 140.13255l68.535446 -68.53544l205.60631 0l0 339.43307l-68.53546 68.53543l-205.6063 0zm0 0l205.6063 0l68.53546 -68.53544m-68.53546 68.53544l0 339.43304" fill-rule="evenodd"/><path fill="#ffd966" d="m190.81102 223.91208l0 0c0 -28.962341 26.341171 -52.44095 58.834656 -52.44095l0 0c32.493484 0 58.83464 23.478607 58.83464 52.44095l0 0c0 28.962326 -26.341156 52.44095 -58.83464 52.44095l0 0c-32.493484 0 -58.834656 -23.478622 -58.834656 -52.44095zm26.220474 0c0 14.481155 14.601868 26.220474 32.61418 26.220474c18.012314 0 32.61418 -11.739319 32.61418 -26.220474l0 0c0 -14.481171 -14.601868 -26.220474 -32.61418 -26.220474l0 0c-18.012314 0 -32.61418 11.739304 -32.61418 26.220474z" fill-rule="evenodd"/><path fill="#ffd966" d="m167.8819 379.82285l0 0c0 -48.02704 36.606888 -86.96063 81.76378 -86.96063l0 0c21.685104 0 42.48204 9.161896 57.81572 25.470184c15.333679 16.308258 23.94806 38.427032 23.94806 61.490448l0 0c0 48.027008 -36.606903 86.96063 -81.76378 86.96063l0 0c-45.15689 0 -81.76378 -38.933624 -81.76378 -86.96063zm31.488861 0l0 0c0 30.6362 22.50885 55.47174 50.274918 55.47174c27.766068 0 50.274918 -24.83554 50.274918 -55.47174c0 -30.63623 -22.50885 -55.47177 -50.274918 -55.47177l0 0c-27.766068 0 -50.274918 24.83554 -50.274918 55.47177z" fill-rule="evenodd"/><path fill="#ffd966" d="m211.20473 379.82285l0 0c0 -20.560669 16.23056 -37.228363 36.25197 -37.228363l0 0c9.614624 0 18.83545 3.9222717 25.634003 10.903931c6.798584 6.9816895 10.61795 16.450836 10.61795 26.324432l0 0c0 20.560638 -16.23056 37.228333 -36.251953 37.228333l0 0c-20.021408 0 -36.25197 -16.667694 -36.25197 -37.228333zm13.9613495 0l0 0c0 12.850006 9.979858 23.266968 22.290619 23.266968c12.3107605 0 22.290619 -10.416962 22.290619 -23.266968c0 -12.850006 -9.979858 -23.266998 -22.290619 -23.266998l0 0c-12.3107605 0 -22.290619 10.416992 -22.290619 23.266998z" fill-rule="evenodd"/><path fill="#ffd966" d="m64.443306 258.3203l0 0c-67.04256 35.322144 -48.726833 81.37915 43.66204 109.79324c92.388885 28.414093 232.86429 31.193146 334.87314 6.6248474c102.00888 -24.568298 136.85867 -69.57352 83.076996 -107.28595l-69.442474 10.790161l0 0c75.04251 17.51654 62.704987 43.247803 -27.754944 57.88617c-90.45996 14.638367 -225.79001 12.802856 -304.4441 -4.1292114c-78.6541 -16.932098 -71.719635 -42.736633 15.600067 -58.051025z" fill-rule="evenodd"/></g></svg>